<?xml version="1.0" encoding="UTF-8" standalone="no"?>
<!DOCTYPE svg PUBLIC "-//W3C//DTD SVG 1.1//EN"
 "http://www.w3.org/Graphics/SVG/1.1/DTD/svg11.dtd">
<!-- Generated by graphviz version 9.0.0 (20230911.1827)
 -->
<!-- Pages: 1 -->
<svg width="1092pt" height="260pt"
 viewBox="0.00 0.00 1092.01 260.00" xmlns="http://www.w3.org/2000/svg" xmlns:xlink="http://www.w3.org/1999/xlink">
<g id="graph0" class="graph" transform="scale(1 1) rotate(0) translate(4 256)">
<polygon fill="white" stroke="none" points="-4,4 -4,-256 1088.01,-256 1088.01,4 -4,4"/>
<!-- [root] var.configuration -->
<g id="node1" class="node">
<title>[root] var.configuration</title>
<polygon fill="none" stroke="black" points="478.74,-36 375.74,-36 375.74,0 484.74,0 484.74,-30 478.74,-36"/>
<polyline fill="none" stroke="black" points="478.74,-36 478.74,-30"/>
<polyline fill="none" stroke="black" points="484.74,-30 478.74,-30"/>
<text text-anchor="middle" x="430.24" y="-12.95" font-family="Times,serif" font-size="14.00">var.configuration</text>
</g>
<!-- [root] local.configuration (expand) -->
<g id="node2" class="node">
<title>[root] local.configuration (expand)</title>
<ellipse fill="none" stroke="black" cx="430.24" cy="-90" rx="139.89" ry="18"/>
<text text-anchor="middle" x="430.24" y="-84.95" font-family="Times,serif" font-size="14.00">[root] local.configuration (expand)</text>
</g>
<!-- [root] local.configuration (expand)&#45;&gt;[root] var.configuration -->
<g id="edge1" class="edge">
<title>[root] local.configuration (expand)&#45;&gt;[root] var.configuration</title>
<path fill="none" stroke="black" d="M430.24,-71.7C430.24,-64.41 430.24,-55.73 430.24,-47.54"/>
<polygon fill="black" stroke="black" points="433.74,-47.62 430.24,-37.62 426.74,-47.62 433.74,-47.62"/>
</g>
<!-- [root] output.categories (expand) -->
<g id="node3" class="node">
<title>[root] output.categories (expand)</title>
<ellipse fill="none" stroke="black" cx="133.24" cy="-162" rx="133.24" ry="18"/>
<text text-anchor="middle" x="133.24" y="-156.95" font-family="Times,serif" font-size="14.00">[root] output.categories (expand)</text>
</g>
<!-- [root] local.categories (expand) -->
<g id="node4" class="node">
<title>[root] local.categories (expand)</title>
<ellipse fill="none" stroke="black" cx="133.24" cy="-90" rx="127.61" ry="18"/>
<text text-anchor="middle" x="133.24" y="-84.95" font-family="Times,serif" font-size="14.00">[root] local.categories (expand)</text>
</g>
<!-- [root] output.categories (expand)&#45;&gt;[root] local.categories (expand) -->
<g id="edge2" class="edge">
<title>[root] output.categories (expand)&#45;&gt;[root] local.categories (expand)</title>
<path fill="none" stroke="black" d="M133.24,-143.7C133.24,-136.41 133.24,-127.73 133.24,-119.54"/>
<polygon fill="black" stroke="black" points="136.74,-119.62 133.24,-109.62 129.74,-119.62 136.74,-119.62"/>
</g>
<!-- [root] output.configuration (expand) -->
<g id="node5" class="node">
<title>[root] output.configuration (expand)</title>
<ellipse fill="none" stroke="black" cx="430.24" cy="-162" rx="145.52" ry="18"/>
<text text-anchor="middle" x="430.24" y="-156.95" font-family="Times,serif" font-size="14.00">[root] output.configuration (expand)</text>
</g>
<!-- [root] output.configuration (expand)&#45;&gt;[root] local.configuration (expand) -->
<g id="edge3" class="edge">
<title>[root] output.configuration (expand)&#45;&gt;[root] local.configuration (expand)</title>
<path fill="none" stroke="black" d="M430.24,-143.7C430.24,-136.41 430.24,-127.73 430.24,-119.54"/>
<polygon fill="black" stroke="black" points="433.74,-119.62 430.24,-109.62 426.74,-119.62 433.74,-119.62"/>
</g>
<!-- [root] output.subnets (expand) -->
<g id="node6" class="node">
<title>[root] output.subnets (expand)</title>
<ellipse fill="none" stroke="black" cx="717.24" cy="-162" rx="123.52" ry="18"/>
<text text-anchor="middle" x="717.24" y="-156.95" font-family="Times,serif" font-size="14.00">[root] output.subnets (expand)</text>
</g>
<!-- [root] local.subnets (expand) -->
<g id="node7" class="node">
<title>[root] local.subnets (expand)</title>
<ellipse fill="none" stroke="black" cx="717.24" cy="-90" rx="117.89" ry="18"/>
<text text-anchor="middle" x="717.24" y="-84.95" font-family="Times,serif" font-size="14.00">[root] local.subnets (expand)</text>
</g>
<!-- [root] output.subnets (expand)&#45;&gt;[root] local.subnets (expand) -->
<g id="edge4" class="edge">
<title>[root] output.subnets (expand)&#45;&gt;[root] local.subnets (expand)</title>
<path fill="none" stroke="black" d="M717.24,-143.7C717.24,-136.41 717.24,-127.73 717.24,-119.54"/>
<polygon fill="black" stroke="black" points="720.74,-119.62 717.24,-109.62 713.74,-119.62 720.74,-119.62"/>
</g>
<!-- [root] output.vcns (expand) -->
<g id="node8" class="node">
<title>[root] output.vcns (expand)</title>
<ellipse fill="none" stroke="black" cx="971.24" cy="-162" rx="112.77" ry="18"/>
<text text-anchor="middle" x="971.24" y="-156.95" font-family="Times,serif" font-size="14.00">[root] output.vcns (expand)</text>
</g>
<!-- [root] local.vcns (expand) -->
<g id="node9" class="node">
<title>[root] local.vcns (expand)</title>
<ellipse fill="none" stroke="black" cx="971.24" cy="-90" rx="107.14" ry="18"/>
<text text-anchor="middle" x="971.24" y="-84.95" font-family="Times,serif" font-size="14.00">[root] local.vcns (expand)</text>
</g>
<!-- [root] output.vcns (expand)&#45;&gt;[root] local.vcns (expand) -->
<g id="edge5" class="edge">
<title>[root] output.vcns (expand)&#45;&gt;[root] local.vcns (expand)</title>
<path fill="none" stroke="black" d="M971.24,-143.7C971.24,-136.41 971.24,-127.73 971.24,-119.54"/>
<polygon fill="black" stroke="black" points="974.74,-119.62 971.24,-109.62 967.74,-119.62 974.74,-119.62"/>
</g>
<!-- [root] root -->
<g id="node10" class="node">
<title>[root] root</title>
<ellipse fill="none" stroke="black" cx="573.24" cy="-234" rx="49.3" ry="18"/>
<text text-anchor="middle" x="573.24" y="-228.95" font-family="Times,serif" font-size="14.00">[root] root</text>
</g>
<!-- [root] root&#45;&gt;[root] output.categories (expand) -->
<g id="edge6" class="edge">
<title>[root] root&#45;&gt;[root] output.categories (expand)</title>
<path fill="none" stroke="black" d="M528.63,-225.9C458.61,-214.76 321.34,-192.93 228.44,-178.15"/>
<polygon fill="black" stroke="black" points="229.26,-174.73 218.83,-176.62 228.16,-181.64 229.26,-174.73"/>
</g>
<!-- [root] root&#45;&gt;[root] output.configuration (expand) -->
<g id="edge7" class="edge">
<title>[root] root&#45;&gt;[root] output.configuration (expand)</title>
<path fill="none" stroke="black" d="M544.65,-219C524.71,-209.25 497.72,-196.03 474.96,-184.89"/>
<polygon fill="black" stroke="black" points="476.72,-181.86 466.2,-180.6 473.65,-188.14 476.72,-181.86"/>
</g>
<!-- [root] root&#45;&gt;[root] output.subnets (expand) -->
<g id="edge8" class="edge">
<title>[root] root&#45;&gt;[root] output.subnets (expand)</title>
<path fill="none" stroke="black" d="M602.04,-219C622.25,-209.18 649.67,-195.85 672.69,-184.66"/>
<polygon fill="black" stroke="black" points="674.09,-187.87 681.56,-180.35 671.03,-181.57 674.09,-187.87"/>
</g>
<!-- [root] root&#45;&gt;[root] output.vcns (expand) -->
<g id="edge9" class="edge">
<title>[root] root&#45;&gt;[root] output.vcns (expand)</title>
<path fill="none" stroke="black" d="M616.97,-225.31C681.55,-213.95 803.67,-192.47 886.25,-177.95"/>
<polygon fill="black" stroke="black" points="886.65,-181.43 895.89,-176.25 885.44,-174.54 886.65,-181.43"/>
</g>
</g>
</svg>
